<svg id="图层_1" data-name="图层 1" xmlns="http://www.w3.org/2000/svg" viewBox="0 0 90.71 25.51"><defs><style>.cls-1{fill:#fff;}.cls-2{isolation:isolate;}</style></defs><title>LOGO文件（RGB）RASER</title><path class="cls-1" d="M16.84,23.68a.16.16,0,0,1,.16-.05A.47.47,0,0,1,16.84,23.68Z"/><path class="cls-1" d="M17.27,19.74c.05,0-.06.08-.1.09A.45.45,0,0,1,17.27,19.74Z"/><path class="cls-1" d="M17.29,19.65s.09-.1.12-.07S17.31,19.67,17.29,19.65Z"/><path class="cls-1" d="M18.05,19.65s.09-.1.11-.09A.16.16,0,0,1,18.05,19.65Z"/><path class="cls-1" d="M18.11,19a.45.45,0,0,1-.21.14C18,19,18.05,19,18.11,19Z"/><path class="cls-1" d="M20.26,20.28c.09-.15.29-.28.38-.46C20.61,20,20.36,20.16,20.26,20.28Z"/><path class="cls-1" d="M20.18,18.7c-.17.16-.31.46-.48.56,0-.07.08-.1.13-.14a1.39,1.39,0,0,1,.06-.13C20,19,20.15,18.64,20.18,18.7Z"/><path class="cls-1" d="M20.77,17.35l0-.08a0,0,0,0,1,0,0C20.82,17.36,20.79,17.37,20.77,17.35Z"/><path class="cls-1" d="M21.79,16c0,.05,0,0,0,.07a1.38,1.38,0,0,1-.25.62c.15-.29.19-.53.31-.81S21.83,15.88,21.79,16Z"/><path class="cls-1" d="M21.09,16.22a.26.26,0,0,1-.08.14S21.05,16.23,21.09,16.22Z"/><path class="cls-1" d="M22.5,16.67a.45.45,0,0,1,.08-.22C22.55,16.52,22.53,16.65,22.5,16.67Z"/><path class="cls-1" d="M21.38,16c-.05.06-.08.19-.13.23S21.35,16,21.38,16Z"/><path class="cls-1" d="M21.25,15.86c0,.1-.07.22-.12.25A2,2,0,0,1,21.25,15.86Z"/><path class="cls-1" d="M22.84,16.52c0-.06.06-.16.1-.17S22.88,16.52,22.84,16.52Z"/><path class="cls-1" d="M22.61,16.32a2.67,2.67,0,0,1,.17-.5A1.71,1.71,0,0,1,22.61,16.32Z"/><path class="cls-1" d="M21.27,15.82c.06-.11.06-.27.11-.37A.87.87,0,0,1,21.27,15.82Z"/><path class="cls-1" d="M22,15.5a1.59,1.59,0,0,1-.08.18C21.9,15.6,21.9,15.47,22,15.5Z"/><path class="cls-1" d="M21.81,15.44s0-.17.05-.18S21.85,15.4,21.81,15.44Z"/><path class="cls-1" d="M21.74,15.05c.06,0,0,.14,0,.16s0-.06,0-.11S21.72,15.09,21.74,15.05Z"/><path class="cls-1" d="M22.69,14.89c-.05.34-.07.11,0,0Z"/><path class="cls-1" d="M23.15,14.68a2.45,2.45,0,0,1,.06-.34A.93.93,0,0,1,23.15,14.68Z"/><path class="cls-1" d="M23.23,14.61l0-.14S23.26,14.65,23.23,14.61Z"/><path class="cls-1" d="M23.87,14.44a.33.33,0,0,1,0-.2A.4.4,0,0,1,23.87,14.44Z"/><path class="cls-1" d="M23.89,13.65c0-.31.07-.23,0,0Z"/><path class="cls-1" d="M21.88,19.57c.14-.16.17-.33.29-.42,0,.11-.16.22-.17.32S21.92,19.54,21.88,19.57Z"/><path class="cls-1" d="M22.56,15.46c-.1.29,0,.48-.16.6a.05.05,0,0,0,0,0c0,.1-.06.17-.1.29s0,0,.05,0,0,.06,0,.12,0-.1,0-.11-.09.23-.14.25C22.29,16.35,22.43,15.73,22.56,15.46Z"/><path class="cls-1" d="M21.45,15.75s0,.11,0,.11,0,0,0,0C21.34,16.07,21.41,15.77,21.45,15.75Z"/><path class="cls-1" d="M21.79,14.49s0-.09,0-.12.06-.5.11-.67a1.41,1.41,0,0,1,0,.49h.05a4.55,4.55,0,0,0-.18.76s0-.06,0,0c-.17.19-.11.65-.29.8C21.63,15.33,21.65,14.88,21.79,14.49Z"/><path class="cls-1" d="M23.4,14.4a.77.77,0,0,1-.07.16C23.31,14.5,23.4,14.38,23.4,14.4Z"/><path class="cls-1" d="M3.83,4.72a7.46,7.46,0,0,0-.56.57c-.06.06-.09.13-.15.2a6.06,6.06,0,0,0-.49.6,4.4,4.4,0,0,1-.4.63A10.79,10.79,0,0,0,1.13,9c0,.06,0,.1,0,.16a6,6,0,0,0-.4,1.57c-.06.31-.11.66-.16,1s0,.73,0,1.06a6.55,6.55,0,0,0,.14,1.77c.06.43.13.9.24,1.36,0,.16.12.31.17.46s.12.46.2.69c.16.4.36.78.55,1.17s.36.71.57,1.05c.09.12.21.21.29.33a2.1,2.1,0,0,1,.14.24,9.58,9.58,0,0,0,1.1,1.27c.29.27.57.53.87.79l1,.73c.28.15.56.32.85.5s.61.32.93.47.86.33,1.3.47a13.32,13.32,0,0,0,1.39.32,9.66,9.66,0,0,0,3,.13.42.42,0,0,1,.15-.08c.11,0,.08,0,.2,0s0-.05.1-.06l.64-.11.61-.16a8.47,8.47,0,0,0,1.17-.4c.13-.05,0,0,.09-.08a5,5,0,0,0,.74-.33,8.37,8.37,0,0,0,.79-.41c.2-.11.41-.25.6-.38s.05,0,.08,0,0,0,0-.08l.16-.11c.22-.18.45-.35.68-.52a7,7,0,0,0,.65-.57.67.67,0,0,1,.17-.21,1,1,0,0,1,.17-.14l.12-.11s0,0,0,0,.32-.32.44-.48.29-.44.47-.67c-.19.22-.39.35-.53.32.11-.26.5-.61.58-.89a8.2,8.2,0,0,0,1.05-1.9q0-.08.06-.06a13.17,13.17,0,0,0,.64-2.25,10.66,10.66,0,0,1-1.68,4,8.17,8.17,0,0,1-1,1.34c-.2.22-.38.25-.38.06.2-.32.47-.52.66-.82,0-.08,0-.16-.09-.12a7.59,7.59,0,0,1-1.52,1.49,1,1,0,0,1-.24.22,1,1,0,0,1-.17,0s0-.08,0-.1c.5-.46.75-.93,1.23-1.44l.06-.32c.14-.16.33-.42.52-.64,0,0,0,0,0-.07a5.44,5.44,0,0,0,.87-1.59,11.31,11.31,0,0,1-.71,1.29c-.05.06-.09.06-.13.09a7.66,7.66,0,0,1-.9,1.2c-.07,0-.15,0,0-.17-.06,0-.07.06-.12.12s0,0,0-.05c-.18.19-.22.22-.39.41,0,0-.09,0-.08,0a3.28,3.28,0,0,0,.39-.46c.08-.09.16-.13.23-.21s0-.05,0-.1.11-.09.14-.13a.64.64,0,0,0,.08-.14c.13-.21.35-.39.48-.61s.11-.37.24-.56c-.1.05-.14.2-.22.33A10.53,10.53,0,0,1,19.53,19c-.08,0,0-.08,0-.14l.22-.26c.05,0,0,.05.05,0,.19-.25.37-.46.56-.76,0-.05,0-.12-.06-.1s0-.06,0-.09,0,0,.06,0,.1-.15.09-.23A10.73,10.73,0,0,0,21,16.39c-.18.26-.35.63-.56,1-.05.08,0,0-.07,0a2.52,2.52,0,0,1-.12.29.85.85,0,0,1-.2.22c-.08.11-.15.25-.24.35s-.21.14-.27.28-.07,0-.15.06,0-.13-.05-.09,0,0,0,.07a.28.28,0,0,1-.15.08,1.79,1.79,0,0,1-.38.45c-.06,0,0-.1,0-.06s-.23.27-.32.27c-.15.17-.27.22-.44.41s0,0-.07,0a3.85,3.85,0,0,0-.34.26.91.91,0,0,0-.38.21s.05-.1.12-.16-.17.13-.21.19a2.89,2.89,0,0,1-.63.26l-.68.27c-.08,0-.13,0-.19.05s0,0,0,0a3.16,3.16,0,0,1-1.11.31c-.07,0,0,0,0,.06s-.28.07-.38,0l-.42.11a1.09,1.09,0,0,1-.4,0c-.06,0-.15,0-.17.06a1.72,1.72,0,0,0-.5,0,8.51,8.51,0,0,1-5.35-1.68,3.09,3.09,0,0,1-.57-.42l-.48-.51c-.09-.1-.21-.16-.25-.3a6.31,6.31,0,0,1-.6-.73A3,3,0,0,1,5,17a4.12,4.12,0,0,1-.52-1.1c-.06-.17-.13-.3-.17-.46s0-.13,0-.19c0-.27-.17-.52-.21-.79s0-.29,0-.43a4.52,4.52,0,0,1-.09-.78,3.2,3.2,0,0,1,0-.82c0-.14,0-.28,0-.41s.06-.13.07-.2A4.47,4.47,0,0,1,4.24,11a2.36,2.36,0,0,0,.08-.4,3.32,3.32,0,0,0,.27-.76,6,6,0,0,0,.54-1.05l0,0c.1-.27.35-.45.49-.68,0,0,0,0,.07-.05A.69.69,0,0,1,6,7.76a3.07,3.07,0,0,1,.46-.53,2.85,2.85,0,0,0,.47-.45,5.21,5.21,0,0,0,.65-.43,1.67,1.67,0,0,0,.2-.08c.06,0,.07-.07.13-.1S8,6.14,8,6.11,8.15,6,8.22,6a1.8,1.8,0,0,1,.21-.08c.08,0,.13-.11.2-.14s.4-.06.59-.25a4.92,4.92,0,0,0,.52-.13c.1,0,.23,0,.32,0s.1-.05.15-.06a1.76,1.76,0,0,1,.39-.06A1.06,1.06,0,0,0,11,5.14c.36,0,1-.14,1.21.05a.14.14,0,0,0,.13.16c.08,0,.13,0,.25,0a1.62,1.62,0,0,1,.68.07c.07,0,.12.1.19.11a3.59,3.59,0,0,1,.44,0c.1,0,.17.13.21.14a.65.65,0,0,0,.37,0s0,0,.1,0a1.14,1.14,0,0,1,.43,0l.49.2.16.06a6.21,6.21,0,0,0,1.11.22s.06,0,.09,0,.29.06.45.11.18,0,.23,0,.24,0,.38,0,.27,0,.37,0,.26-.15.47-.13c.11-.2.35-.31.54-.51,0,0,.07,0,.08,0-.11-.25.11-.3.1-.5,0,0-.07-.15-.08-.21a1,1,0,0,1,0-.34,7.52,7.52,0,0,1-.52-.78A3.56,3.56,0,0,0,18.36,3s-.08,0-.11-.08c-.18-.19-.47-.42-.69-.63s-.43-.31-.8-.53a2.86,2.86,0,0,0-.39-.19c-.27-.11-.5-.26-.77-.37a6.88,6.88,0,0,0-.9-.2c-.13,0-.26-.11-.38-.13a3.27,3.27,0,0,0-.67,0,1.41,1.41,0,0,0-.54-.07C13,1,13,1,12.82,1.08c-.38,0-.7-.38-.87-.1a12.7,12.7,0,0,1-1.44.21,7.38,7.38,0,0,0-1,.23,3.51,3.51,0,0,0-.88.26,2.57,2.57,0,0,0-.7.26A8.76,8.76,0,0,0,6,3a4.11,4.11,0,0,0-1.11.82A7.05,7.05,0,0,0,3.83,4.72ZM19,19.21a0,0,0,0,0,0,0C18.92,19.33,18.93,19.2,19,19.21Zm.25-.39c.06,0,.09-.06.15-.14s.2-.21.27-.14a.89.89,0,0,0-.16.27c-.05,0-.05,0-.08,0s-.26.3-.38.44c-.06,0,0-.08-.07-.08C19.07,19,19.15,19,19.26,18.82Z"/><path class="cls-1" d="M20.42,20.83Z"/><polygon class="cls-1" points="14.49 15.02 17.54 16.65 13.19 14.08 17.4 15.07 13.82 14.04 18.65 14.54 14.61 13.96 18.19 14.06 13.53 13.72 18.64 12.93 14.32 13.42 17.23 12.69 13.99 13.32 18.48 11.7 13.14 13.4 17.38 10.4 12.87 13.31 16.08 8.66 12.88 12.92 14.96 7.73 12.54 13.16 12.58 7.35 12.3 13.34 9.37 8.52 11.88 13.08 8.76 10.05 10.63 12.05 7.65 9.45 11.13 12.74 7.39 10.18 11.93 13.56 6.2 12.72 11.78 13.78 6.88 14.9 9.43 14.44 6.3 15.29 12.12 13.96 9.37 17.97 11.26 15.48 9.13 19.14 11.11 16.03 9.76 18.69 12.37 14.07 14.18 19.54 12.63 14.1 17.33 17.67 13.93 14.86 17.81 17.27 14.49 15.02"/><g id="layer1"><g id="text10" class="cls-2"><g class="cls-2"><path class="cls-1" d="M24.67,7.23c0-1-.08-2-.13-3l1.37.08c.45,0,.9,0,1.37,0s.92,0,1.37,0,.9-.06,1.37-.06a9.93,9.93,0,0,1,1.92.18,4.76,4.76,0,0,1,1.6.61,3,3,0,0,1,1.08,1.11A3.38,3.38,0,0,1,35,7.89a3.35,3.35,0,0,1-.52,1.89,4.63,4.63,0,0,1-1.26,1.31,6.48,6.48,0,0,1-1.6.8,8.28,8.28,0,0,1-1.55.38l.79,1c.34.42.72.87,1.14,1.37l1.29,1.56,1.3,1.56c.42.5.81,1,1.18,1.37s.67.73.89.94A5.81,5.81,0,0,0,36,20H34.54a5.36,5.36,0,0,0-.7.05l-1.09-1.45c-.49-.64-1-1.33-1.62-2.06s-1.2-1.47-1.82-2.2-1.18-1.34-1.7-1.84H26.7v1.67c0,1,0,2,.06,3s.09,1.94.13,2.89c-.37,0-.76-.05-1.17-.05s-.81,0-1.18.05c.05-1,.09-1.91.13-2.89s.06-2,.06-3v-4Q24.73,8.68,24.67,7.23Zm2.76,4.37c.27,0,.56,0,.88,0a8.41,8.41,0,0,0,1.55-.16,4.65,4.65,0,0,0,1.48-.57,3.36,3.36,0,0,0,1.12-1.07,3.08,3.08,0,0,0,.44-1.72,2.89,2.89,0,0,0-.34-1.48,2.79,2.79,0,0,0-.91-.93,3.58,3.58,0,0,0-1.2-.47,7,7,0,0,0-1.27-.12c-.56,0-1,0-1.4,0s-.68.05-.93.08c0,.84-.07,1.68-.1,2.5s-.05,1.66-.05,2.48v1.31A4.16,4.16,0,0,0,27.43,11.6Z"/><path class="cls-1" d="M52.38,20a4.85,4.85,0,0,0-.64-.05H50.47a5,5,0,0,0-.64.05c-.11-.35-.26-.78-.45-1.27s-.41-1-.64-1.57L48,15.54c-.24-.56-.47-1.09-.67-1.59l-1.57,0h-3l-1.47,0c-.51,1.19-1,2.33-1.39,3.4s-.73,2-.94,2.68a7.95,7.95,0,0,0-1.78,0q2-4,3.8-8C42.19,9.39,43.44,6.7,44.69,4h.45l1.25,2.88L47.76,10c.47,1.06.93,2.11,1.4,3.15s.9,2,1.31,2.9.78,1.7,1.11,2.4S52.17,19.66,52.38,20ZM41.73,12.89l1.3,0,1.3,0,1.34,0,1.35,0L44.35,7.06Z"/><path class="cls-1" d="M54.82,17.88a3.85,3.85,0,0,0,.79.77,4.23,4.23,0,0,0,2.49.78,3.8,3.8,0,0,0,1.43-.26,3.32,3.32,0,0,0,1.09-.71,3.16,3.16,0,0,0,.68-1.06,3.49,3.49,0,0,0,.24-1.3A2.41,2.41,0,0,0,61,14.43a4.7,4.7,0,0,0-1.41-1,18.94,18.94,0,0,0-1.81-.75,9.82,9.82,0,0,1-1.82-.86,4.94,4.94,0,0,1-1.41-1.32A3.76,3.76,0,0,1,54,8.3a4.23,4.23,0,0,1,.36-1.76,3.84,3.84,0,0,1,1-1.36A5,5,0,0,1,57,4.28a7.62,7.62,0,0,1,4.16-.06A5.08,5.08,0,0,1,62.74,5a5.19,5.19,0,0,0-.36.83A10.77,10.77,0,0,0,62.1,7h-.29a4.81,4.81,0,0,0-.33-.7,2.43,2.43,0,0,0-.55-.7A2.83,2.83,0,0,0,60.1,5,2.71,2.71,0,0,0,59,4.81,3.51,3.51,0,0,0,57.71,5a2.88,2.88,0,0,0-1,.58,2.57,2.57,0,0,0-.65.91,2.88,2.88,0,0,0-.23,1.15,2.38,2.38,0,0,0,.57,1.69,4.48,4.48,0,0,0,1.41,1.05,15.88,15.88,0,0,0,1.81.76,10.7,10.7,0,0,1,1.82.81,4.52,4.52,0,0,1,1.4,1.24,3.29,3.29,0,0,1,.57,2,5,5,0,0,1-.4,2,4.69,4.69,0,0,1-1.15,1.64A5.22,5.22,0,0,1,60,20a7.66,7.66,0,0,1-2.49.38A6.53,6.53,0,0,1,55.11,20a6.63,6.63,0,0,1-1.55-.86,6,6,0,0,0,.3-.95c.06-.29.11-.65.16-1.1h.28A4.79,4.79,0,0,0,54.82,17.88Z"/><path class="cls-1" d="M66.48,7.2c0-1-.08-2-.13-2.94l2.15.08c.72,0,1.43,0,2.15,0s1.44,0,2.14,0l2.14-.08a4,4,0,0,0-.07.69,4,4,0,0,0,.07.69l-1.4-.1-1.35-.09-1.55-.08c-.56,0-1.23,0-2,0,0,.49,0,1-.06,1.4s0,1,0,1.51,0,1.18,0,1.75,0,1,0,1.28c.7,0,1.34,0,1.9,0s1.07,0,1.54-.06l1.28-.07,1.12-.08a3.35,3.35,0,0,0-.07.71,3.23,3.23,0,0,0,.07.69c-.42,0-.9-.08-1.45-.11l-1.66-.06-1.57,0H68.54c0,.14,0,.28,0,.44s0,.37,0,.61v2.28c0,.87,0,1.59,0,2.15s0,1,0,1.29h1.69c.61,0,1.2,0,1.79,0s1.14-.05,1.66-.09a9.16,9.16,0,0,0,1.35-.17,1.93,1.93,0,0,0-.06.36c0,.13,0,.25,0,.35a2.35,2.35,0,0,0,.07.6c-.72,0-1.43-.05-2.15-.05H68.54c-.72,0-1.45,0-2.19.05.05-1,.09-2,.13-2.93s.06-2,.06-3v-4C66.54,9.17,66.52,8.18,66.48,7.2Z"/><path class="cls-1" d="M78.19,7.23c0-1-.08-2-.13-3l1.37.08c.45,0,.91,0,1.37,0s.92,0,1.37,0,.91-.06,1.37-.06a10,10,0,0,1,1.93.18,4.85,4.85,0,0,1,1.6.61,3.19,3.19,0,0,1,1.08,1.11,3.49,3.49,0,0,1,.39,1.73A3.42,3.42,0,0,1,88,9.78a4.81,4.81,0,0,1-1.27,1.31,6.41,6.41,0,0,1-1.59.8,8.36,8.36,0,0,1-1.56.38c.2.23.46.55.8,1l1.13,1.37,1.3,1.56,1.3,1.56c.41.5.8,1,1.17,1.37s.67.73.89.94a5.81,5.81,0,0,0-.72-.05H88.06a5.09,5.09,0,0,0-.69.05l-1.1-1.45c-.49-.64-1-1.33-1.62-2.06s-1.2-1.47-1.82-2.2S81.65,13,81.14,12.48h-.92v1.67c0,1,0,2,.06,3s.09,1.94.14,2.89c-.37,0-.76-.05-1.18-.05s-.81,0-1.18.05c0-1,.09-1.91.13-2.89s.06-2,.06-3v-4Q78.25,8.68,78.19,7.23ZM81,11.6c.26,0,.55,0,.88,0a8.59,8.59,0,0,0,1.55-.16,4.74,4.74,0,0,0,1.48-.57A3.33,3.33,0,0,0,86,9.83a3.08,3.08,0,0,0,.45-1.72,2.89,2.89,0,0,0-.35-1.48,2.67,2.67,0,0,0-.9-.93A3.67,3.67,0,0,0,84,5.23a7.1,7.1,0,0,0-1.28-.12c-.56,0-1,0-1.39,0s-.68.05-.94.08c0,.84-.07,1.68-.1,2.5s0,1.66,0,2.48v1.31A4.16,4.16,0,0,0,81,11.6Z"/></g></g></g></svg>
